<svg xmlns="http://www.w3.org/2000/svg" version="1.1" xmlns:xlink="http://www.w3.org/1999/xlink" xmlns:svgjs="http://svgjs.com/svgjs" width="1440" height="560" preserveAspectRatio="none" viewBox="0 0 1440 560"><g mask="url(&quot;#SvgjsMask1004&quot;)" fill="none"><rect width="1440" height="560" x="0" y="0" fill="rgba(229, 229, 229, 1)"></rect><path d="M0,443.229C81.529,440.252,133.175,357.145,206.378,321.13C292.531,278.743,426.777,300.455,467.207,213.366C507.561,126.441,398.781,39.386,380.881,-54.762C364.165,-142.679,408.374,-238.414,366.294,-317.396C320.868,-402.659,241.238,-481.878,145.695,-496.192C51.111,-510.362,-23.214,-418.439,-114.339,-389.402C-202.508,-361.307,-314.77,-394.969,-379.5,-328.839C-444.227,-262.712,-427.753,-154.749,-434.368,-62.453C-440.531,23.53,-458.051,114.661,-416.71,190.305C-376.228,264.377,-288.456,292.766,-216.296,336.564C-146.154,379.137,-81.996,446.223,0,443.229" fill="#dadada"></path><path d="M1440 1244.636C1567.955 1226.922 1615.234 1065.627 1705.6689999999999 973.39 1772.98 904.738 1844.5 847.538 1903.652 771.7429999999999 1980.2350000000001 673.614 2110.248 588.969 2102.642 464.726 2095.117 341.812 1946.319 284.165 1867.984 189.149 1787.078 91.01400000000001 1751.72-53.21100000000001 1634.651-102.92200000000003 1515.233-153.63 1367.157-135.87599999999998 1254.635-71.29499999999996 1148.754-10.524999999999977 1123.954 126.118 1057.338 228.42200000000003 1001.467 314.224 920.1 382.419 894.622 481.587 867.459 587.311 869.601 700.638 909.958 802.062 951.427 906.28 1036.343 982.241 1122.441 1054.1309999999999 1219.152 1134.882 1315.199 1261.913 1440 1244.636" fill="#f1f1f1"></path></g><defs><mask id="SvgjsMask1004"><rect width="1440" height="560" fill="#ffffff"></rect></mask></defs></svg>