<svg width="64" height="64" viewBox="0 0 64 64" fill="none" xmlns="http://www.w3.org/2000/svg">
<path d="M29.4502 6.63037V29.7104H59.3402L49.3802 18.1704L59.8202 6.89037L29.4502 6.63037Z" fill="#E28D88"/>
<path d="M36.15 46.0704C35.953 46.0441 35.7528 46.0569 35.5607 46.108C35.3687 46.1591 35.1886 46.2476 35.0308 46.3683C34.8729 46.489 34.7404 46.6396 34.6407 46.8116C34.5411 46.9835 34.4763 47.1734 34.45 47.3704C34.4237 47.5674 34.4365 47.7676 34.4876 47.9596C34.5388 48.1517 34.6272 48.3318 34.7479 48.4896C34.8686 48.6475 35.0193 48.78 35.1912 48.8797C35.3631 48.9793 35.553 49.0441 35.75 49.0704C44.65 50.2404 47.64 52.6104 47.64 53.5104C47.64 55.2104 40.2 58.5104 26.57 58.5104C12.94 58.5104 5.5 55.1904 5.5 53.4904C5.5 52.5904 8.5 50.2204 17.4 49.0504C17.597 49.0241 17.7869 48.9593 17.9588 48.8597C18.1307 48.76 18.2814 48.6275 18.4021 48.4696C18.5228 48.3118 18.6112 48.1317 18.6624 47.9396C18.7135 47.7476 18.7263 47.5474 18.7 47.3504C18.6737 47.1534 18.6089 46.9635 18.5093 46.7916C18.4096 46.6196 18.2771 46.469 18.1192 46.3483C17.9614 46.2276 17.7813 46.1391 17.5892 46.088C17.3972 46.0369 17.197 46.0241 17 46.0504C12.64 46.6304 2.5 48.5104 2.5 53.4704C2.5 58.7304 14.61 61.4704 26.57 61.4704C38.53 61.4704 50.64 58.7204 50.64 53.4704C50.64 48.5304 40.5 46.6504 36.15 46.0704Z" fill="#595D62"/>
<path d="M51.0803 18.2302L61.0803 7.79021C61.2842 7.57826 61.4213 7.31103 61.4746 7.02176C61.5278 6.73249 61.4948 6.43395 61.3798 6.16327C61.2647 5.89259 61.0725 5.66173 60.8273 5.49939C60.582 5.33704 60.2944 5.25039 60.0003 5.25021H30.5303C30.1812 4.31927 29.516 3.54062 28.651 3.05035C27.786 2.56008 26.7763 2.38938 25.7982 2.56807C24.8202 2.74677 23.936 3.2635 23.3003 4.02795C22.6645 4.79241 22.3177 5.75596 22.3203 6.75021V51.2902C22.3203 52.4174 22.7681 53.4984 23.5651 54.2954C24.3621 55.0924 25.4431 55.5402 26.5703 55.5402C27.6975 55.5402 28.7785 55.0924 29.5755 54.2954C30.3725 53.4984 30.8203 52.4174 30.8203 51.2902V31.2102H60.0003C60.2944 31.2117 60.5825 31.1261 60.8281 30.9641C61.0736 30.8022 61.2658 30.5712 61.3803 30.3002C61.4978 30.0311 61.532 29.733 61.4786 29.4442C61.4251 29.1555 61.2864 28.8894 61.0803 28.6802L51.0803 18.2302ZM27.8203 51.2902C27.8203 51.6217 27.6886 51.9397 27.4542 52.1741C27.2197 52.4085 26.9018 52.5402 26.5703 52.5402C26.2388 52.5402 25.9208 52.4085 25.6864 52.1741C25.452 51.9397 25.3203 51.6217 25.3203 51.2902V6.75021C25.3203 6.41869 25.452 6.10075 25.6864 5.86633C25.9208 5.63191 26.2388 5.50021 26.5703 5.50021C26.9018 5.50021 27.2197 5.63191 27.4542 5.86633C27.6886 6.10075 27.8203 6.41869 27.8203 6.75021V51.2902ZM30.8203 28.2102V8.21021H56.4903L47.9203 17.1502C47.6514 17.4297 47.5012 17.8024 47.5012 18.1902C47.5012 18.578 47.6514 18.9508 47.9203 19.2302L56.4903 28.1702L30.8203 28.2102Z" fill="#595D62"/>
</svg>
